<mxfile host="Electron" modified="2023-12-29T08:23:50.717Z" agent="Mozilla/5.0 (Windows NT 10.0; Win64; x64) AppleWebKit/537.36 (KHTML, like Gecko) draw.io/22.1.15 Chrome/120.0.6099.109 Electron/28.1.0 Safari/537.36" etag="4ziQNV2KQ2Eivaiohi14" version="22.1.15" type="device">
  <diagram name="Page-1" id="EyJmQfzGRWC4bJj0ETMN">
    <mxGraphModel dx="285" dy="390" grid="1" gridSize="10" guides="1" tooltips="1" connect="1" arrows="1" fold="1" page="1" pageScale="1" pageWidth="850" pageHeight="1100" math="0" shadow="0">
      <root>
        <mxCell id="0" />
        <mxCell id="1" parent="0" />
        <mxCell id="Q4NeIX15Mo6EeL3TkWHJ-1" style="edgeStyle=orthogonalEdgeStyle;rounded=0;orthogonalLoop=1;jettySize=auto;html=1;exitX=0;exitY=0.5;exitDx=0;exitDy=0;" parent="1" source="Q4NeIX15Mo6EeL3TkWHJ-5" target="Q4NeIX15Mo6EeL3TkWHJ-8" edge="1">
          <mxGeometry relative="1" as="geometry">
            <Array as="points">
              <mxPoint x="280" y="215" />
            </Array>
          </mxGeometry>
        </mxCell>
        <mxCell id="Q4NeIX15Mo6EeL3TkWHJ-2" value="满足" style="edgeLabel;html=1;align=center;verticalAlign=middle;resizable=0;points=[];" parent="Q4NeIX15Mo6EeL3TkWHJ-1" vertex="1" connectable="0">
          <mxGeometry x="0.1844" y="-3" relative="1" as="geometry">
            <mxPoint x="3" y="2" as="offset" />
          </mxGeometry>
        </mxCell>
        <mxCell id="Q4NeIX15Mo6EeL3TkWHJ-3" style="edgeStyle=orthogonalEdgeStyle;rounded=0;orthogonalLoop=1;jettySize=auto;html=1;exitX=1;exitY=0.5;exitDx=0;exitDy=0;" parent="1" source="Q4NeIX15Mo6EeL3TkWHJ-5" target="Q4NeIX15Mo6EeL3TkWHJ-9" edge="1">
          <mxGeometry relative="1" as="geometry">
            <Array as="points">
              <mxPoint x="360" y="215" />
            </Array>
          </mxGeometry>
        </mxCell>
        <mxCell id="Q4NeIX15Mo6EeL3TkWHJ-4" value="不满足" style="edgeLabel;html=1;align=center;verticalAlign=middle;resizable=0;points=[];" parent="Q4NeIX15Mo6EeL3TkWHJ-3" vertex="1" connectable="0">
          <mxGeometry x="0.1481" relative="1" as="geometry">
            <mxPoint y="4" as="offset" />
          </mxGeometry>
        </mxCell>
        <mxCell id="Q4NeIX15Mo6EeL3TkWHJ-5" value="条件" style="rhombus;whiteSpace=wrap;html=1;fillColor=#fad7ac;strokeColor=#b46504;" parent="1" vertex="1">
          <mxGeometry x="290" y="200" width="60" height="30" as="geometry" />
        </mxCell>
        <mxCell id="Q4NeIX15Mo6EeL3TkWHJ-36" style="edgeStyle=orthogonalEdgeStyle;rounded=0;orthogonalLoop=1;jettySize=auto;html=1;" parent="1" source="Q4NeIX15Mo6EeL3TkWHJ-8" target="Q4NeIX15Mo6EeL3TkWHJ-31" edge="1">
          <mxGeometry relative="1" as="geometry">
            <Array as="points">
              <mxPoint x="280" y="440" />
              <mxPoint x="320" y="440" />
            </Array>
          </mxGeometry>
        </mxCell>
        <mxCell id="Q4NeIX15Mo6EeL3TkWHJ-8" value="操作" style="rounded=0;whiteSpace=wrap;html=1;fillColor=#fad7ac;strokeColor=#b46504;" parent="1" vertex="1">
          <mxGeometry x="250" y="240" width="60" height="20" as="geometry" />
        </mxCell>
        <mxCell id="Q4NeIX15Mo6EeL3TkWHJ-22" style="edgeStyle=orthogonalEdgeStyle;rounded=0;orthogonalLoop=1;jettySize=auto;html=1;" parent="1" source="Q4NeIX15Mo6EeL3TkWHJ-9" target="Q4NeIX15Mo6EeL3TkWHJ-19" edge="1">
          <mxGeometry relative="1" as="geometry" />
        </mxCell>
        <mxCell id="Q4NeIX15Mo6EeL3TkWHJ-9" value="操作" style="rounded=0;whiteSpace=wrap;html=1;fillColor=#fad7ac;strokeColor=#b46504;" parent="1" vertex="1">
          <mxGeometry x="330" y="240" width="60" height="20" as="geometry" />
        </mxCell>
        <mxCell id="Q4NeIX15Mo6EeL3TkWHJ-14" style="edgeStyle=orthogonalEdgeStyle;rounded=0;orthogonalLoop=1;jettySize=auto;html=1;" parent="1" source="Q4NeIX15Mo6EeL3TkWHJ-13" target="Q4NeIX15Mo6EeL3TkWHJ-5" edge="1">
          <mxGeometry relative="1" as="geometry" />
        </mxCell>
        <mxCell id="Q4NeIX15Mo6EeL3TkWHJ-13" value="程序开始" style="strokeWidth=2;html=1;shape=mxgraph.flowchart.terminator;whiteSpace=wrap;fillColor=#eeeeee;strokeColor=#36393d;" parent="1" vertex="1">
          <mxGeometry x="280" y="150" width="80" height="30" as="geometry" />
        </mxCell>
        <mxCell id="Q4NeIX15Mo6EeL3TkWHJ-15" style="edgeStyle=orthogonalEdgeStyle;rounded=0;orthogonalLoop=1;jettySize=auto;html=1;exitX=0;exitY=0.5;exitDx=0;exitDy=0;" parent="1" source="Q4NeIX15Mo6EeL3TkWHJ-19" target="Q4NeIX15Mo6EeL3TkWHJ-20" edge="1">
          <mxGeometry relative="1" as="geometry">
            <Array as="points">
              <mxPoint x="320" y="295" />
            </Array>
          </mxGeometry>
        </mxCell>
        <mxCell id="Q4NeIX15Mo6EeL3TkWHJ-16" value="满足" style="edgeLabel;html=1;align=center;verticalAlign=middle;resizable=0;points=[];" parent="Q4NeIX15Mo6EeL3TkWHJ-15" vertex="1" connectable="0">
          <mxGeometry x="0.1844" y="-3" relative="1" as="geometry">
            <mxPoint x="3" y="2" as="offset" />
          </mxGeometry>
        </mxCell>
        <mxCell id="Q4NeIX15Mo6EeL3TkWHJ-17" style="edgeStyle=orthogonalEdgeStyle;rounded=0;orthogonalLoop=1;jettySize=auto;html=1;exitX=1;exitY=0.5;exitDx=0;exitDy=0;" parent="1" source="Q4NeIX15Mo6EeL3TkWHJ-19" target="Q4NeIX15Mo6EeL3TkWHJ-21" edge="1">
          <mxGeometry relative="1" as="geometry">
            <Array as="points">
              <mxPoint x="400" y="295" />
            </Array>
          </mxGeometry>
        </mxCell>
        <mxCell id="Q4NeIX15Mo6EeL3TkWHJ-18" value="不满足" style="edgeLabel;html=1;align=center;verticalAlign=middle;resizable=0;points=[];" parent="Q4NeIX15Mo6EeL3TkWHJ-17" vertex="1" connectable="0">
          <mxGeometry x="0.1481" relative="1" as="geometry">
            <mxPoint y="4" as="offset" />
          </mxGeometry>
        </mxCell>
        <mxCell id="Q4NeIX15Mo6EeL3TkWHJ-19" value="条件" style="rhombus;whiteSpace=wrap;html=1;fillColor=#fad7ac;strokeColor=#b46504;" parent="1" vertex="1">
          <mxGeometry x="330" y="280" width="60" height="30" as="geometry" />
        </mxCell>
        <mxCell id="Q4NeIX15Mo6EeL3TkWHJ-35" style="edgeStyle=orthogonalEdgeStyle;rounded=0;orthogonalLoop=1;jettySize=auto;html=1;" parent="1" source="Q4NeIX15Mo6EeL3TkWHJ-20" target="Q4NeIX15Mo6EeL3TkWHJ-31" edge="1">
          <mxGeometry relative="1" as="geometry" />
        </mxCell>
        <mxCell id="Q4NeIX15Mo6EeL3TkWHJ-20" value="操作" style="rounded=0;whiteSpace=wrap;html=1;fillColor=#fad7ac;strokeColor=#b46504;" parent="1" vertex="1">
          <mxGeometry x="290" y="320" width="60" height="20" as="geometry" />
        </mxCell>
        <mxCell id="Q4NeIX15Mo6EeL3TkWHJ-30" style="edgeStyle=orthogonalEdgeStyle;rounded=0;orthogonalLoop=1;jettySize=auto;html=1;" parent="1" source="Q4NeIX15Mo6EeL3TkWHJ-21" target="Q4NeIX15Mo6EeL3TkWHJ-27" edge="1">
          <mxGeometry relative="1" as="geometry" />
        </mxCell>
        <mxCell id="Q4NeIX15Mo6EeL3TkWHJ-21" value="操作" style="rounded=0;whiteSpace=wrap;html=1;fillColor=#fad7ac;strokeColor=#b46504;" parent="1" vertex="1">
          <mxGeometry x="370" y="320" width="60" height="20" as="geometry" />
        </mxCell>
        <mxCell id="Q4NeIX15Mo6EeL3TkWHJ-23" style="edgeStyle=orthogonalEdgeStyle;rounded=0;orthogonalLoop=1;jettySize=auto;html=1;exitX=0;exitY=0.5;exitDx=0;exitDy=0;" parent="1" source="Q4NeIX15Mo6EeL3TkWHJ-27" target="Q4NeIX15Mo6EeL3TkWHJ-28" edge="1">
          <mxGeometry relative="1" as="geometry">
            <Array as="points">
              <mxPoint x="360" y="375" />
            </Array>
          </mxGeometry>
        </mxCell>
        <mxCell id="Q4NeIX15Mo6EeL3TkWHJ-24" value="满足" style="edgeLabel;html=1;align=center;verticalAlign=middle;resizable=0;points=[];" parent="Q4NeIX15Mo6EeL3TkWHJ-23" vertex="1" connectable="0">
          <mxGeometry x="0.1844" y="-3" relative="1" as="geometry">
            <mxPoint x="3" y="2" as="offset" />
          </mxGeometry>
        </mxCell>
        <mxCell id="Q4NeIX15Mo6EeL3TkWHJ-25" style="edgeStyle=orthogonalEdgeStyle;rounded=0;orthogonalLoop=1;jettySize=auto;html=1;exitX=1;exitY=0.5;exitDx=0;exitDy=0;" parent="1" source="Q4NeIX15Mo6EeL3TkWHJ-27" target="Q4NeIX15Mo6EeL3TkWHJ-29" edge="1">
          <mxGeometry relative="1" as="geometry">
            <Array as="points">
              <mxPoint x="440" y="375" />
            </Array>
          </mxGeometry>
        </mxCell>
        <mxCell id="Q4NeIX15Mo6EeL3TkWHJ-26" value="不满足" style="edgeLabel;html=1;align=center;verticalAlign=middle;resizable=0;points=[];" parent="Q4NeIX15Mo6EeL3TkWHJ-25" vertex="1" connectable="0">
          <mxGeometry x="0.1481" relative="1" as="geometry">
            <mxPoint y="4" as="offset" />
          </mxGeometry>
        </mxCell>
        <mxCell id="Q4NeIX15Mo6EeL3TkWHJ-27" value="条件" style="rhombus;whiteSpace=wrap;html=1;fillColor=#fad7ac;strokeColor=#b46504;" parent="1" vertex="1">
          <mxGeometry x="370" y="360" width="60" height="30" as="geometry" />
        </mxCell>
        <mxCell id="Q4NeIX15Mo6EeL3TkWHJ-32" style="edgeStyle=orthogonalEdgeStyle;rounded=0;orthogonalLoop=1;jettySize=auto;html=1;" parent="1" source="Q4NeIX15Mo6EeL3TkWHJ-28" target="Q4NeIX15Mo6EeL3TkWHJ-31" edge="1">
          <mxGeometry relative="1" as="geometry" />
        </mxCell>
        <mxCell id="Q4NeIX15Mo6EeL3TkWHJ-28" value="操作" style="rounded=0;whiteSpace=wrap;html=1;fillColor=#fad7ac;strokeColor=#b46504;" parent="1" vertex="1">
          <mxGeometry x="330" y="400" width="60" height="20" as="geometry" />
        </mxCell>
        <mxCell id="Q4NeIX15Mo6EeL3TkWHJ-33" style="edgeStyle=orthogonalEdgeStyle;rounded=0;orthogonalLoop=1;jettySize=auto;html=1;" parent="1" source="Q4NeIX15Mo6EeL3TkWHJ-29" target="Q4NeIX15Mo6EeL3TkWHJ-31" edge="1">
          <mxGeometry relative="1" as="geometry">
            <Array as="points">
              <mxPoint x="440" y="440" />
              <mxPoint x="320" y="440" />
            </Array>
          </mxGeometry>
        </mxCell>
        <mxCell id="Q4NeIX15Mo6EeL3TkWHJ-29" value="操作" style="rounded=0;whiteSpace=wrap;html=1;fillColor=#fad7ac;strokeColor=#b46504;" parent="1" vertex="1">
          <mxGeometry x="410" y="400" width="60" height="20" as="geometry" />
        </mxCell>
        <mxCell id="Q4NeIX15Mo6EeL3TkWHJ-31" value="程序结束" style="strokeWidth=2;html=1;shape=mxgraph.flowchart.terminator;whiteSpace=wrap;fillColor=#eeeeee;strokeColor=#36393d;" parent="1" vertex="1">
          <mxGeometry x="280" y="460" width="80" height="30" as="geometry" />
        </mxCell>
      </root>
    </mxGraphModel>
  </diagram>
</mxfile>
